<?xml version="1.0" standalone="no"?><!DOCTYPE svg PUBLIC "-//W3C//DTD SVG 1.1//EN" "http://www.w3.org/Graphics/SVG/1.1/DTD/svg11.dtd"><svg t="1763903641457" class="icon" viewBox="0 0 3364 1024" version="1.1" xmlns="http://www.w3.org/2000/svg" p-id="6790" xmlns:xlink="http://www.w3.org/1999/xlink" width="657.03125" height="200"><path d="M95.93984257 26.42532076m38.32004686 0l3133.33572916 0q38.32004688 0 38.32004501 38.32004688l0 900.3291029q0 38.32004688-38.32004501 38.32004689l-3133.33572916 0q-38.32004688 0-38.32004686-38.32004689l0-900.3291029q0-38.32004688 38.32004686-38.32004688Z" fill="#FFB141" p-id="6791"></path><path d="M486.51249911 586.17445336q0 100.5997201-75.79536285 107.51115228c-7.21860498 0.69114263-14.59079829 1.15190566-22.2701663 1.4590804h-32.33013887a357.39778672 357.39778672 0 0 0-7.67936803-38.39684009 377.44093678 377.44093678 0 0 0 50.683827 1.45908042q52.06611424 0 50.60703572-73.64513979 0-90.92371737-73.26116993-172.78577951l68.03919974-211.18261962H320.94532461v622.02880773h-38.39684013V165.57546929h199.66356853v38.78080802l-64.66027971 199.66356852q71.18774204 87.39120711 68.96072581 182.15460753z m58.90075125-420.59898407h324.37650519v325.83558365H699.15419913q24.11321463 84.47304823 57.82564068 135.3872568 68.65354916-39.8559205 146.52234187-93.38111324l23.72924667 30.71747208Q856.19727464 608.6750012 777.09978307 655.36555875q49.91589118 62.20288 168.48533533 120.71966529a361.3142649 361.3142649 0 0 0-25.1883271 33.02128345q-211.95055737-97.98873595-259.71622548-317.84904284H583.50291577V755.19734303q73.56834467-37.32172764 122.86988834-63.89234194a252.19044578 252.19044578 0 0 0 3.53251024 42.00614355q-62.43326154 28.79763054-122.86988834 62.51005472a210.18430226 210.18430226 0 0 0-35.2482997 24.42039127L525.98444976 788.75618079a82.01565047 82.01565047 0 0 0 15.35873607-25.49550185 87.08403239 87.08403239 0 0 0 4.30044608-29.79594597z m38.39684013 33.78921926v112.42594781h248.50434912V199.36468855z m0 258.25714511h248.50434912V345.19588584h-248.81152384zM1013.08676188 197.90560817h229.53630965v571.49856523h-38.3968401v-62.51005475h-152.74262944v71.49491673h-38.39684011z m38.39684011 35.24829969V434.96769752h153.04980415V233.15390786z m0 236.29415158v202.27455462h153.04980415V469.37126625z m490.71161552-340.50317514h38.3968401v161.26672651h99.83178427v36.70738013h-99.83178427v388.19205198q0.99831735 93.45790836-94.8401955 94.8401936-51.7589395 1.45908038-104.5161983 1.45908041a288.12988812 288.12988812 0 0 0-8.98486011-42.54369786q45.30827036 2.15022304 104.20902357 2.15022303c24.65077088 0 41.62217372-4.53082759 50.99100364-14.36041869s15.35873605-26.03305807 14.7443866-50.2230659V326.53502109H1283.9380705V289.82764288h258.25714701z m-147.29027767 459.76376195q-42.77407939-87.62158865-80.09580892-156.27513969l32.86769512-16.81781644q46.07620813 81.09412628 82.24603007 153.58736041zM1748.00227855 400.87130351a277.14839139 277.14839139 0 0 0-26.57061236-30.71747209q147.21348444-109.50778702 228.07722922-242.13047127l39.08798277 15.81949715q-20.73429268 31.56220303-42.69728622 59.97586376h288.43706287v39.16477789l-91.23089211 91.23089013h183.15292683v220.39786315h-212.64170003v162.72580693q-3.22533361 52.06611424 65.42821554 49.91589116h117.80150449q59.89907057 1.38228528 69.11431217-51.37497157 6.83463707-34.09639401 12.59416354-94.14905097a345.03400468 345.03400468 0 0 0 38.39684011 10.82790843q-6.45066912 54.21633725-14.74438661 95.14737026-14.74438659 77.33123643-97.2975933 75.79536091h-138.99656018q-91.69165319 0.69114263-90.53974754-82.62999798V554.61225223h-17.5857542q-56.1361807 174.16806672-305.3316706 270.77451545a328.21618825 328.21618825 0 0 0-24.80435919-38.01287219q226.69494396-79.94222061 287.20836399-232.76164326H1806.13509591V352.33769761q-27.26175693 23.03810405-58.13281736 48.5336059z m439.25985078-162.34183898h-269.39223017a1022.8918165 1022.8918165 0 0 1-92.15241621 95.53133815h264.7078161z m-342.26943219 130.54925632v150.13164335h183.1529268a546.92458947 546.92458947 0 0 0 21.57902369-149.67088219z m442.10121452 0h-197.89731149a681.31352884 681.31352884 0 0 1-20.42711987 150.13164335h218.32443136zM2886.62217158 131.47907527h37.70569745v60.35983167h171.32669912v136.15519454h-171.32669912v72.26285259H3129.29020102c-0.76793584 21.34864215-1.91984151 40.47026994-3.60930342 57.51846791q-2.84136569 50.2230659-57.4416728 52.06611422c-9.36882802 0.69114263-18.96803949 1.22869889-28.79763057 1.4590804h-36.55379178a196.97578924 196.97578924 0 0 0-8.21692232-32.6373155c24.88115236 0.92152416 46.53696925 1.45908038 64.96745248 1.45908038 20.11994324 0.69114263 30.71747209-8.29371747 32.3301389-26.95458033a204.96233198 204.96233198 0 0 0 1.45908038-20.887881h-168.94609643v66.50332611h-37.85928388v-66.50332611H2722.28369595a180.15797281 180.15797281 0 0 1-79.02069644 92.68997057h391.64776902v177.47019543h-38.39684008V558.5287285H2624.75572307v153.04980418h-38.39684012V554.61225223a1066.51062685 1066.51062685 0 0 1-107.51115231 39.85591859 355.40115008 355.40115008 0 0 0-20.88788098-36.63058498q190.06435708-46.76735077 220.93541742-125.40407928h-162.95618841l20.81108781-136.84633716h167.41022288c1.15190566-14.36041867 2.22701627-38.3968401 3.22533362-71.11094883h-203.2728701v-32.33013889h204.73195047v-32.63731363-27.72251807h38.39684009c0 6.75784384-0.46076114 16.81781645-0.76793774 30.17991588s-0.46076114 23.49886518-0.69114264 30.17991582h140.83960852z m-92.15241624 469.13259001h39.16477785a297.03795312 297.03795312 0 0 1-16.1266738 72.18605936q169.94441381 60.35983171 301.72236906 110.96686741l-20.11994329 35.63226763q-175.01279574-72.18605941-296.34681236-117.11036184-44.92430243 81.55488743-284.82775748 122.86988831a271.54245321 271.54245321 0 0 0-18.35369005-37.09134801q171.09631949-25.87946974 230.38103869-65.04424569 61.43494416-36.24661706 64.6602797-122.10195245z m-238.06040671-200.81547234H2691.56622577a328.60015616 328.60015616 0 0 0 10.82790846-71.80209146h-134.38894132z m184.30483057-71.80209146a362.15899392 362.15899392 0 0 1-9.75279597 71.80209146h155.66078835v-71.80209146z m4.3004461-103.82505564c0 9.13844841-0.76793584 22.50054782-1.45907848 40.23988844-0.69114263 13.89965566-1.22869889 24.19000973-1.45908043 30.71747206h144.52570519v-71.1109469z m314.8540888 0h-135.54084507v71.11094881H3060.17588885z" fill="#FFFFFF" p-id="6792"></path></svg>